<svg width="327" height="89" viewBox="0 0 327 89" fill="none" xmlns="http://www.w3.org/2000/svg">
<path d="M303.537 87.3622C304.29 88.5199 305.838 88.8486 306.996 88.0963L325.862 75.8366C327.02 75.0842 327.349 73.5358 326.597 72.3781C325.844 71.2203 324.296 70.8917 323.138 71.644L306.368 82.5415L295.47 65.7711C294.718 64.6134 293.169 64.2847 292.012 65.037C290.854 65.7894 290.525 67.3378 291.278 68.4955L303.537 87.3622ZM0.700998 7.86681C4.43489 16.5952 12.181 22.5358 22.3679 26.4281C32.5407 30.315 45.4016 32.2654 59.8728 32.8813C88.8258 34.1135 124.884 30.022 160.287 24.685C178.007 22.0136 195.607 19.023 212.111 16.2176C228.627 13.4102 244.031 10.7908 257.409 8.85175C270.81 6.9094 282.06 5.66805 290.295 5.58742C294.425 5.54699 297.656 5.80149 299.969 6.34577C302.399 6.91737 303.214 7.66566 303.437 8.07634L307.831 5.69073C306.545 3.32165 303.886 2.13075 301.115 1.4787C298.227 0.799327 294.532 0.545702 290.246 0.587661C281.652 0.671805 270.12 1.95725 256.692 3.90346C243.241 5.85303 227.771 8.48392 211.273 11.2883C194.763 14.0948 177.208 17.0776 159.542 19.7409C124.17 25.0731 88.5212 29.0961 60.0854 27.8858C45.8623 27.2805 33.6084 25.3704 24.1525 21.7574C14.7107 18.1498 8.31426 12.951 5.29803 5.90026L0.700998 7.86681ZM303.437 8.07634C306.197 13.1605 307.675 20.4544 308.233 28.794C308.787 37.077 308.419 46.1313 307.671 54.5599C306.923 62.9791 305.801 70.7184 304.865 76.3557C304.397 79.1727 303.977 81.4608 303.674 83.0417C303.522 83.8321 303.4 84.4455 303.316 84.8595C303.274 85.0665 303.242 85.2236 303.22 85.3281C303.209 85.3804 303.201 85.4195 303.196 85.445C303.193 85.4578 303.191 85.4672 303.19 85.4732C303.189 85.4762 303.189 85.4784 303.188 85.4796C303.188 85.4803 303.188 85.4806 303.188 85.4809C303.188 85.481 303.188 85.4809 305.634 86C308.079 86.5191 308.079 86.5185 308.079 86.5177C308.08 86.5172 308.08 86.5162 308.08 86.5151C308.08 86.5129 308.081 86.5099 308.082 86.506C308.084 86.4982 308.086 86.4869 308.089 86.4723C308.095 86.443 308.104 86.4002 308.116 86.3441C308.139 86.232 308.173 86.0671 308.217 85.8521C308.304 85.422 308.429 84.7917 308.584 83.9833C308.894 82.3668 309.322 80.0376 309.798 77.1748C310.748 71.4525 311.89 63.5823 312.651 55.0021C313.412 46.4314 313.799 37.0965 313.221 28.4603C312.647 19.8807 311.107 11.7256 307.831 5.69073L303.437 8.07634Z" fill="white"/>
</svg>
